# xmcd
#
# Track frame offsets: 
#        150
#        17359
#        34022
#        52608
#        73707
#        92810
#        110335
#        130877
#        148094
#        163845
#        178605
#
# Disc length: 2654 seconds
#
# Revision: 0
# Processed by: cddbd v1.5.2PL0 Copyright (c) Steve Scherf et al.
# Submitted via: ExactAudioCopy v0.99pb4
#
DISCID=8c0a5c0b
DTITLE=Doc Span and Matthew Cang - The Treatment
DYEAR=2007
DGENRE=Blues
TTITLE0=Forgiving Love
TTITLE1=Love Me Like
TTITLE2=Better Get A Lifebuoy
TTITLE3=Weather Inside
TTITLE4=First Take Frank Blake
TTITLE5=Doc's Diner
TTITLE6=Gimme Summa Dat
TTITLE7=Sweet Kisses
TTITLE8=Dimedrop
TTITLE9=Dirty Little Lies
TTITLE10=What Else Could You Do?
EXTD=
EXTT0=
EXTT1=
EXTT2=
EXTT3=
EXTT4=
EXTT5=
EXTT6=
EXTT7=
EXTT8=
EXTT9=
EXTT10=
PLAYORDER=
